<mxfile modified="2022-07-04T23:07:38.815Z" host="app.diagrams.net" agent="5.0 (Windows NT 10.0; Win64; x64) AppleWebKit/537.36 (KHTML, like Gecko) Chrome/103.0.0.0 Safari/537.36" etag="PyJ6dk91IqFLiK5XdZMC" version="20.0.4" type="github">
  <diagram id="WI9T0HZ2pTsCkuznbFz-" name="Page-1">
    <mxGraphModel dx="539" dy="323" grid="1" gridSize="10" guides="1" tooltips="1" connect="1" arrows="1" fold="1" page="1" pageScale="1" pageWidth="1169" pageHeight="827" math="0" shadow="0">
      <root>
        <mxCell id="0" />
        <mxCell id="1" parent="0" />
        <mxCell id="AcxdMaKK0mU5kZiv2lnr-4" value="Ambiente Tableau&lt;br&gt;" style="rounded=0;whiteSpace=wrap;html=1;fillColor=#f5f5f5;strokeColor=none;fontColor=#333333;verticalAlign=top;" parent="1" vertex="1">
          <mxGeometry x="150" y="60" width="660" height="570" as="geometry" />
        </mxCell>
        <mxCell id="IClXaQyypYt0TOF2HRAg-5" value="" style="sketch=0;aspect=fixed;html=1;points=[];align=center;image;fontSize=12;image=img/lib/mscae/Azure_AD_B2C.svg;" vertex="1" parent="1">
          <mxGeometry x="440" y="322" width="50" height="46" as="geometry" />
        </mxCell>
        <mxCell id="IClXaQyypYt0TOF2HRAg-6" value="Azure AD" style="text;html=1;resizable=0;autosize=1;align=center;verticalAlign=middle;points=[];fillColor=none;strokeColor=none;rounded=0;fontStyle=1" vertex="1" parent="1">
          <mxGeometry x="422.5" y="361" width="80" height="30" as="geometry" />
        </mxCell>
        <mxCell id="IClXaQyypYt0TOF2HRAg-15" style="edgeStyle=orthogonalEdgeStyle;shape=arrow;rounded=0;orthogonalLoop=1;jettySize=auto;html=1;entryX=0.005;entryY=0.63;entryDx=0;entryDy=0;entryPerimeter=0;" edge="1" parent="1" source="IClXaQyypYt0TOF2HRAg-7" target="IClXaQyypYt0TOF2HRAg-8">
          <mxGeometry relative="1" as="geometry">
            <Array as="points">
              <mxPoint x="640" y="250" />
              <mxPoint x="640" y="247" />
            </Array>
          </mxGeometry>
        </mxCell>
        <mxCell id="IClXaQyypYt0TOF2HRAg-7" value="" style="shape=image;html=1;verticalAlign=top;verticalLabelPosition=bottom;labelBackgroundColor=#ffffff;imageAspect=0;aspect=fixed;image=https://cdn1.iconfinder.com/data/icons/ionicons-fill-vol-2/512/logo-tableau-128.png" vertex="1" parent="1">
          <mxGeometry x="215" y="210" width="80" height="80" as="geometry" />
        </mxCell>
        <mxCell id="IClXaQyypYt0TOF2HRAg-8" value="" style="sketch=0;html=1;dashed=0;whitespace=wrap;fillColor=#2875E2;strokeColor=#ffffff;points=[[0.005,0.63,0],[0.1,0.2,0],[0.9,0.2,0],[0.5,0,0],[0.995,0.63,0],[0.72,0.99,0],[0.5,1,0],[0.28,0.99,0]];shape=mxgraph.kubernetes.icon;prIcon=api" vertex="1" parent="1">
          <mxGeometry x="650" y="201" width="90" height="76" as="geometry" />
        </mxCell>
        <mxCell id="IClXaQyypYt0TOF2HRAg-9" value="Tableau Server" style="text;html=1;resizable=0;autosize=1;align=center;verticalAlign=middle;points=[];fillColor=none;strokeColor=none;rounded=0;fontStyle=1" vertex="1" parent="1">
          <mxGeometry x="210" y="180" width="110" height="30" as="geometry" />
        </mxCell>
        <mxCell id="IClXaQyypYt0TOF2HRAg-10" value="API&amp;nbsp;Embedded" style="text;html=1;resizable=0;autosize=1;align=center;verticalAlign=middle;points=[];fillColor=none;strokeColor=none;rounded=0;fontStyle=1" vertex="1" parent="1">
          <mxGeometry x="640" y="175" width="110" height="30" as="geometry" />
        </mxCell>
        <mxCell id="IClXaQyypYt0TOF2HRAg-16" value="Relação de Confiança" style="text;html=1;resizable=0;autosize=1;align=center;verticalAlign=middle;points=[];fillColor=none;strokeColor=none;rounded=0;fontStyle=1" vertex="1" parent="1">
          <mxGeometry x="390" y="222" width="150" height="30" as="geometry" />
        </mxCell>
        <mxCell id="IClXaQyypYt0TOF2HRAg-23" style="edgeStyle=orthogonalEdgeStyle;rounded=0;orthogonalLoop=1;jettySize=auto;html=1;entryX=0;entryY=0.5;entryDx=0;entryDy=0;entryPerimeter=0;" edge="1" parent="1" source="IClXaQyypYt0TOF2HRAg-17" target="IClXaQyypYt0TOF2HRAg-24">
          <mxGeometry relative="1" as="geometry" />
        </mxCell>
        <mxCell id="IClXaQyypYt0TOF2HRAg-17" value="" style="shape=image;html=1;verticalAlign=top;verticalLabelPosition=bottom;labelBackgroundColor=#ffffff;imageAspect=0;aspect=fixed;image=https://cdn1.iconfinder.com/data/icons/unicons-line-vol-5/24/react-128.png" vertex="1" parent="1">
          <mxGeometry x="215" y="391" width="60" height="60" as="geometry" />
        </mxCell>
        <mxCell id="IClXaQyypYt0TOF2HRAg-18" value="App Embedded" style="text;html=1;resizable=0;autosize=1;align=center;verticalAlign=middle;points=[];fillColor=none;strokeColor=none;rounded=0;fontStyle=1" vertex="1" parent="1">
          <mxGeometry x="200" y="437" width="110" height="30" as="geometry" />
        </mxCell>
        <mxCell id="IClXaQyypYt0TOF2HRAg-25" style="edgeStyle=orthogonalEdgeStyle;rounded=0;orthogonalLoop=1;jettySize=auto;html=1;entryX=0.5;entryY=1;entryDx=0;entryDy=0;entryPerimeter=0;" edge="1" parent="1" source="IClXaQyypYt0TOF2HRAg-24" target="IClXaQyypYt0TOF2HRAg-8">
          <mxGeometry relative="1" as="geometry" />
        </mxCell>
        <mxCell id="IClXaQyypYt0TOF2HRAg-24" value="Login" style="html=1;strokeColor=none;fillColor=#0079D6;labelPosition=center;verticalLabelPosition=middle;verticalAlign=top;align=center;fontSize=12;outlineConnect=0;spacingTop=-6;fontColor=#FFFFFF;sketch=0;shape=mxgraph.sitemap.login;" vertex="1" parent="1">
          <mxGeometry x="405" y="391" width="115" height="59" as="geometry" />
        </mxCell>
      </root>
    </mxGraphModel>
  </diagram>
</mxfile>
